<svg width="16" height="16" viewBox="0 0 16 16" fill="none" xmlns="http://www.w3.org/2000/svg">
<path d="M2.68025 13.318C2.31459 13.318 2.00157 13.1878 1.74117 12.9274C1.48078 12.667 1.35059 12.3539 1.35059 11.9883V4.01033C1.35059 3.64467 1.48078 3.33164 1.74117 3.07125C2.00157 2.81086 2.31459 2.68066 2.68025 2.68066H13.3175C13.6832 2.68066 13.9962 2.81086 14.2566 3.07125C14.517 3.33164 14.6472 3.64467 14.6472 4.01033V11.9883C14.6472 12.3539 14.517 12.667 14.2566 12.9274C13.9962 13.1878 13.6832 13.318 13.3175 13.318H2.68025ZM7.99889 8.66414L13.3175 5.33999V4.01033L7.99889 7.33448L2.68025 4.01033V5.33999L7.99889 8.66414Z" fill="#053169"/>
</svg>
