<svg width="16" height="16" viewBox="0 0 16 16" fill="none" xmlns="http://www.w3.org/2000/svg">
<path d="M7.99889 14.6482C7.07921 14.6482 6.21493 14.4737 5.40605 14.1246C4.59718 13.7756 3.89356 13.3019 3.29522 12.7035C2.69687 12.1052 2.22318 11.4016 1.87414 10.5927C1.5251 9.78383 1.35059 8.91955 1.35059 7.99987C1.35059 7.08019 1.5251 6.21591 1.87414 5.40703C2.22318 4.59815 2.69687 3.89454 3.29522 3.29619C3.89356 2.69784 4.59718 2.22415 5.40605 1.87512C6.21493 1.52608 7.07921 1.35156 7.99889 1.35156C8.91857 1.35156 9.78285 1.52608 10.5917 1.87512C11.4006 2.22415 12.1042 2.69784 12.7026 3.29619C13.3009 3.89454 13.7746 4.59815 14.1236 5.40703C14.4727 6.21591 14.6472 7.08019 14.6472 7.99987C14.6472 8.91955 14.4727 9.78383 14.1236 10.5927C13.7746 11.4016 13.3009 12.1052 12.7026 12.7035C12.1042 13.3019 11.4006 13.7756 10.5917 14.1246C9.78285 14.4737 8.91857 14.6482 7.99889 14.6482ZM7.99889 11.6564C8.49751 11.1578 8.94073 10.6426 9.32855 10.1107C9.66097 9.6564 9.96568 9.15778 10.2427 8.61484C10.5197 8.07189 10.6582 7.53449 10.6582 7.00262C10.6582 6.27131 10.3978 5.64526 9.87704 5.12448C9.35625 4.60369 8.73021 4.3433 7.99889 4.3433C7.26758 4.3433 6.64153 4.60369 6.12075 5.12448C5.59996 5.64526 5.33957 6.27131 5.33957 7.00262C5.33957 7.53449 5.47808 8.07189 5.75509 8.61484C6.0321 9.15778 6.33682 9.6564 6.66923 10.1107C7.05705 10.6426 7.50027 11.1578 7.99889 11.6564ZM7.99889 7.99987C7.72188 7.99987 7.48642 7.90291 7.29251 7.709C7.0986 7.5151 7.00165 7.27963 7.00165 7.00262C7.00165 6.72561 7.0986 6.49015 7.29251 6.29624C7.48642 6.10233 7.72188 6.00538 7.99889 6.00538C8.2759 6.00538 8.51136 6.10233 8.70527 6.29624C8.89918 6.49015 8.99614 6.72561 8.99614 7.00262C8.99614 7.27963 8.89918 7.5151 8.70527 7.709C8.51136 7.90291 8.2759 7.99987 7.99889 7.99987Z" fill="#053169"/>
</svg>
