<svg width="16" height="16" viewBox="0 0 16 16" fill="none" xmlns="http://www.w3.org/2000/svg">
<path d="M13.2855 13.9836C11.9004 13.9836 10.532 13.6816 9.18015 13.0777C7.82833 12.4738 6.59839 11.6179 5.49034 10.5098C4.38229 9.40176 3.52632 8.17182 2.92243 6.82C2.31855 5.46818 2.0166 4.09974 2.0166 2.71467C2.0166 2.51522 2.08308 2.34902 2.21605 2.21605C2.34902 2.08308 2.51522 2.0166 2.71467 2.0166H5.40724C5.56236 2.0166 5.70087 2.06923 5.82276 2.1745C5.94464 2.27976 6.01667 2.40442 6.03883 2.54847L6.47097 4.87537C6.49313 5.05266 6.48759 5.20225 6.45435 5.32413C6.4211 5.44602 6.36016 5.55128 6.27152 5.63993L4.6593 7.26876C4.88091 7.67874 5.14407 8.07487 5.44879 8.45715C5.7535 8.83942 6.08869 9.20785 6.45435 9.56243C6.79784 9.90592 7.15796 10.2245 7.53469 10.5181C7.91143 10.8118 8.31033 11.0805 8.73139 11.3242L10.2937 9.76188C10.3935 9.66215 10.5237 9.58736 10.6843 9.5375C10.845 9.48763 11.0029 9.47378 11.158 9.49594L13.4517 9.96133C13.6068 10.0056 13.7342 10.086 13.834 10.2023C13.9337 10.3187 13.9836 10.4489 13.9836 10.5929V13.2855C13.9836 13.4849 13.9171 13.6511 13.7841 13.7841C13.6511 13.9171 13.4849 13.9836 13.2855 13.9836Z" fill="#053169"/>
</svg>
